<svg width="62" height="62" viewBox="0 0 62 62" fill="none" xmlns="http://www.w3.org/2000/svg">
<g clip-path="url(#clip0)">
<rect width="62" height="62" fill="#40308a"/>
<g filter="url(#filter0_d)">
<rect width="62" height="62" fill="white"/>
</g>
<path d="M36.6669 13.0502C34.8848 13.049 33.1565 13.6609 31.7722 14.7833C31.5521 14.9609 31.2777 15.0578 30.9948 15.0578C30.7119 15.0578 30.4375 14.9609 30.2174 14.7833C28.8331 13.6609 27.1048 13.049 25.3227 13.0502C20.8662 13.0502 17.3777 17.3383 17.3777 22.8149C17.2132 26.4976 18.29 30.1289 20.4354 33.1267C20.5598 33.2874 20.6427 33.4763 20.6768 33.6766C20.7109 33.877 20.6952 34.0826 20.631 34.2755C19.8334 36.7332 19.4322 39.3023 19.4426 41.8862C19.4433 43.5491 19.6091 45.2078 19.9377 46.8378C20.0522 47.4272 20.3664 47.9591 20.8273 48.3438C21.2882 48.7285 21.8677 48.9425 22.468 48.9497C23.1262 48.9467 23.7598 48.6998 24.2464 48.2566C24.733 47.8135 25.038 47.2056 25.1023 46.5506C25.5975 41.8812 28.1327 38.3581 30.9948 38.3581C33.8569 38.3581 36.3896 41.8812 36.8873 46.5482C36.95 47.204 37.2544 47.8131 37.7412 48.257C38.2281 48.7009 38.8627 48.9478 39.5216 48.9497C40.1219 48.9453 40.7023 48.7341 41.165 48.3517C41.6277 47.9692 41.9445 47.439 42.0618 46.8502C42.3909 45.216 42.5568 43.5532 42.5569 41.8862C42.5673 39.3023 42.1661 36.7332 41.3685 34.2755C41.3043 34.0826 41.2886 33.877 41.3227 33.6766C41.3568 33.4763 41.4397 33.2874 41.5641 33.1267C43.7095 30.1289 44.7863 26.4976 44.6218 22.8149C44.6119 17.3383 41.1209 13.0502 36.6669 13.0502V13.0502Z" fill="#40308a"/>
</g>
<defs>
<filter id="filter0_d" x="-12" y="-9" width="86" height="86" filterUnits="userSpaceOnUse" color-interpolation-filters="sRGB">
<feFlood flood-opacity="0" result="BackgroundImageFix"/>
<feColorMatrix in="SourceAlpha" type="matrix" values="0 0 0 0 0 0 0 0 0 0 0 0 0 0 0 0 0 0 127 0"/>
<feOffset dy="3"/>
<feGaussianBlur stdDeviation="6"/>
<feColorMatrix type="matrix" values="0 0 0 0 0.363667 0 0 0 0 0.308333 0 0 0 0 1 0 0 0 0.11 0"/>
<feBlend mode="normal" in2="BackgroundImageFix" result="effect1_dropShadow"/>
<feBlend mode="normal" in="SourceGraphic" in2="effect1_dropShadow" result="shape"/>
</filter>
<clipPath id="clip0">
<rect width="62" height="62" fill="#40308a"/>
</clipPath>
</defs>
</svg>
