<svg width="31" height="24" viewBox="0 0 31 24" fill="none" xmlns="http://www.w3.org/2000/svg">
    <path fill-rule="evenodd" clip-rule="evenodd" d="M0.200195 4.5V19.5C0.200195 21.9853 2.21491 24 4.7002 24H25.7002C28.1855 24 30.2002 21.9853 30.2002 19.5V4.5C30.2002 2.01472 28.1855 0 25.7002 0H4.70019C2.21491 0 0.200195 2.01472 0.200195 4.5ZM4.7002 21C3.87177 21 3.2002 20.3284 3.2002 19.5L3.2002 4.5C3.2002 3.67157 3.87177 3 4.7002 3L25.7002 3C26.5286 3 27.2002 3.67157 27.2002 4.5V19.5C27.2002 20.3284 26.5286 21 25.7002 21L4.7002 21ZM22.1991 6C22.1991 5.17157 21.5276 4.5 20.6991 4.5C19.8707 4.5 19.1991 5.17157 19.1991 6V6.23569C17.771 6.54175 16.7002 7.81124 16.7002 9.33081C16.7002 11.079 18.1174 12.4962 19.8656 12.4962H21.5355C21.6269 12.4962 21.701 12.5703 21.701 12.6616C21.701 12.753 21.6269 12.827 21.5356 12.827H18.6169C17.7885 12.827 17.1169 13.4986 17.1169 14.327C17.1169 15.1555 17.7885 15.827 18.6169 15.827H19.1991V15.9924C19.1991 16.8209 19.8707 17.4924 20.6991 17.4924C21.5276 17.4924 22.1991 16.8209 22.1991 15.9924V15.7574C23.6288 15.4524 24.701 14.1822 24.701 12.6616C24.701 10.9134 23.2838 9.49622 21.5355 9.49622H19.8656C19.7743 9.49622 19.7002 9.42216 19.7002 9.33081C19.7002 9.23946 19.7743 9.16541 19.8656 9.16541H22.7842C23.6127 9.16541 24.2842 8.49383 24.2842 7.66541C24.2842 6.83698 23.6127 6.16541 22.7842 6.16541H22.1991V6ZM4.7002 13.5C4.7002 12.6716 5.37177 12 6.2002 12H10.7002C11.5286 12 12.2002 12.6716 12.2002 13.5C12.2002 14.3284 11.5286 15 10.7002 15H6.2002C5.37177 15 4.7002 14.3284 4.7002 13.5ZM6.2002 16.5C5.37177 16.5 4.7002 17.1716 4.7002 18C4.7002 18.8284 5.37177 19.5 6.2002 19.5H14.4502C15.2786 19.5 15.9502 18.8284 15.9502 18C15.9502 17.1716 15.2786 16.5 14.4502 16.5H6.2002Z" fill="white"/>
</svg>
