<svg width="25" height="24" viewBox="0 0 25 24" fill="none" xmlns="http://www.w3.org/2000/svg">
    <path fill-rule="evenodd" clip-rule="evenodd" d="M16.9073 7.79289C17.2978 8.18342 17.2978 8.81658 16.9073 9.20711L8.9073 17.2071C8.51678 17.5976 7.88361 17.5976 7.49309 17.2071C7.10256 16.8166 7.10256 16.1834 7.49309 15.7929L15.4931 7.79289C15.8836 7.40237 16.5168 7.40237 16.9073 7.79289Z" fill="#4F5B84"/>
    <path fill-rule="evenodd" clip-rule="evenodd" d="M7.49309 7.79289C7.88361 7.40237 8.51678 7.40237 8.9073 7.79289L16.9073 15.7929C17.2978 16.1834 17.2978 16.8166 16.9073 17.2071C16.5168 17.5976 15.8836 17.5976 15.4931 17.2071L7.49309 9.20711C7.10256 8.81658 7.10256 8.18342 7.49309 7.79289Z" fill="#4F5B84"/>
</svg>
