<svg width="25" height="24" viewBox="0 0 25 24" fill="none" xmlns="http://www.w3.org/2000/svg">
    <path fill-rule="evenodd" clip-rule="evenodd" d="M2.2002 12C2.2002 17.5228 6.67735 22 12.2002 22C17.723 22 22.2002 17.5228 22.2002 12C22.2002 6.47715 17.723 2 12.2002 2C6.67735 2 2.2002 6.47715 2.2002 12ZM4.2002 12C4.2002 7.58172 7.78192 4 12.2002 4C16.6185 4 20.2002 7.58172 20.2002 12C20.2002 16.4183 16.6185 20 12.2002 20C7.78192 20 4.2002 16.4183 4.2002 12ZM7.95755 13C7.40527 13 6.95755 12.5523 6.95755 12C6.95755 11.4477 7.40527 11 7.95755 11H16.4428C16.9951 11 17.4428 11.4477 17.4428 12C17.4428 12.5523 16.9951 13 16.4428 13H7.95755Z" fill="#4F5B84"/>
</svg>
