<svg width="25" height="24" viewBox="0 0 25 24" fill="none" xmlns="http://www.w3.org/2000/svg">
    <path fill-rule="evenodd" clip-rule="evenodd" d="M12.2002 22C6.67735 22 2.2002 17.5228 2.2002 12C2.2002 6.47715 6.67735 2 12.2002 2C17.723 2 22.2002 6.47715 22.2002 12C22.2002 17.5228 17.723 22 12.2002 22ZM12.2002 4C7.78192 4 4.2002 7.58172 4.2002 12C4.2002 16.4183 7.78192 20 12.2002 20C16.6185 20 20.2002 16.4183 20.2002 12C20.2002 7.58172 16.6185 4 12.2002 4ZM12.2006 6.75736C12.7529 6.75736 13.2006 7.20507 13.2006 7.75736V11H16.4428C16.9951 11 17.4428 11.4477 17.4428 12C17.4428 12.5523 16.9951 13 16.4428 13H13.2006V16.2426C13.2006 16.7949 12.7529 17.2426 12.2006 17.2426C11.6484 17.2426 11.2006 16.7949 11.2006 16.2426V13H7.95755C7.40527 13 6.95755 12.5523 6.95755 12C6.95755 11.4477 7.40527 11 7.95755 11H11.2006V7.75736C11.2006 7.20507 11.6484 6.75736 12.2006 6.75736Z" fill="#4F5B84"/>
</svg>
