<svg width="24" height="24" viewBox="0 0 24 24" fill="none" xmlns="http://www.w3.org/2000/svg">
<path d="M11.0221 5.52726L11.0221 6.27726H11.0221L11.0221 5.52726ZM15.9121 5.52726L16.379 4.94028V4.94028L15.9121 5.52726ZM11.0221 13.6352V12.8852V13.6352ZM16.145 10.8547L16.8935 10.8077L16.145 10.8547ZM6.13209 5.52726L5.66524 4.94028L6.13209 5.52726ZM8.46067 18.5V19.25V18.5ZM5.89923 10.8547L5.15071 10.8077L5.89923 10.8547ZM15.1723 14.1093C15.1042 14.5179 15.3802 14.9043 15.7888 14.9724C16.1974 15.0405 16.5838 14.7645 16.6519 14.3559L15.1723 14.1093ZM19.0148 13.0949L19.5682 13.6012L19.0148 13.0949ZM17.8744 11.5473L17.1297 11.4583C17.0817 11.8602 17.3612 12.2277 17.7613 12.2887C18.1614 12.3497 18.5378 12.0823 18.6118 11.6844L17.8744 11.5473ZM1.63726 15.5936C1.27472 15.7939 1.14322 16.2502 1.34355 16.6127C1.54389 16.9753 2.00019 17.1068 2.36274 16.9064L1.63726 15.5936ZM21.5207 16.8269C21.8394 17.0916 22.3122 17.0479 22.5769 16.7293C22.8416 16.4106 22.7979 15.9378 22.4793 15.6731L21.5207 16.8269ZM19.0148 2V1.25H18.3491L18.2701 1.91105L19.0148 2ZM19.6501 2L20.3875 2.13714L20.5525 1.25H19.6501V2ZM5.87546 11.9811L5.12563 11.9972L5.87546 11.9811ZM11.0221 6.27726C11.5654 6.27725 12.0703 6.19076 12.5206 6.09352C13.0104 5.98777 13.3451 5.89328 13.7425 5.81991C14.4526 5.68881 14.9459 5.71711 15.4453 6.11425L16.379 4.94028C15.3867 4.1511 14.3664 4.17938 13.4702 4.34484C13.0644 4.41975 12.5727 4.5477 12.204 4.62731C11.7959 4.71544 11.4103 4.77725 11.0221 4.77726L11.0221 6.27726ZM13.5835 17.75C13.707 17.75 13.8368 17.7971 13.9358 17.8852C13.978 17.9228 14.0042 17.9587 14.019 17.9822C14.0335 18.0055 14.0395 18.0209 14.0402 18.0228C14.0404 18.0234 14.0317 17.9989 14.0216 17.9347C14.0119 17.8732 14.0038 17.7936 13.9973 17.6921C13.9839 17.483 13.9807 17.2413 13.9731 16.9416C13.9657 16.653 13.9543 16.3274 13.9226 15.9961C13.8611 15.3535 13.7156 14.5842 13.2805 13.9644C12.8069 13.2898 12.058 12.8852 11.0221 12.8852V14.3852C11.6163 14.3852 11.8861 14.5887 12.0528 14.8263C12.2581 15.1186 12.3745 15.5655 12.4295 16.1391C12.4559 16.4159 12.4664 16.6984 12.4736 16.9799C12.4805 17.2503 12.4846 17.5407 12.5003 17.7876C12.5152 18.0202 12.5442 18.3107 12.6394 18.5592C12.6892 18.6894 12.7768 18.8617 12.9384 19.0055C13.1174 19.1649 13.3436 19.25 13.5835 19.25V17.75ZM15.4453 6.11425C15.851 6.43695 15.9348 6.86534 15.7979 7.73955C15.7645 7.95278 15.7207 8.17637 15.6718 8.41986C15.6238 8.65878 15.5708 8.9182 15.5245 9.18155C15.432 9.70848 15.3583 10.2948 15.3964 10.9018L16.8935 10.8077C16.8663 10.3743 16.9173 9.92272 17.0019 9.44103C17.0442 9.20007 17.0928 8.9625 17.1425 8.71506C17.1912 8.47219 17.2409 8.22007 17.2798 7.97156C17.4321 6.99882 17.4648 5.80389 16.379 4.94028L15.4453 6.11425ZM15.3964 10.9018C15.5408 13.1997 15.0451 14.9844 14.4763 16.1793C14.1908 16.7792 13.8905 17.2225 13.6515 17.5041C13.5306 17.6465 13.4363 17.7346 13.3785 17.7797C13.3492 17.8026 13.3423 17.8041 13.3569 17.7968C13.3592 17.7957 13.4446 17.75 13.5835 17.75V19.25C13.7807 19.25 13.9395 19.1826 14.0279 19.1384C14.1287 19.0879 14.2209 19.025 14.3012 18.9624C14.4626 18.8364 14.63 18.6693 14.795 18.4749C15.1276 18.0832 15.4959 17.5274 15.8307 16.824C16.5026 15.4124 17.0548 13.3745 16.8935 10.8077L15.3964 10.9018ZM11.0221 4.77726C10.6339 4.77725 10.2483 4.71544 9.8402 4.62731C9.4715 4.5477 8.9798 4.41975 8.57403 4.34484C7.67777 4.17938 6.65749 4.1511 5.66524 4.94028L6.59894 6.11425C7.09828 5.71711 7.59157 5.68881 8.30171 5.81991C8.69913 5.89328 9.03383 5.98777 9.5236 6.09352C9.97393 6.19076 10.4788 6.27725 11.0221 6.27726L11.0221 4.77726ZM8.46067 19.25C8.70057 19.25 8.92682 19.1649 9.10582 19.0055C9.26743 18.8617 9.35496 18.6894 9.40484 18.5592C9.5 18.3107 9.52903 18.0202 9.54388 17.7876C9.55964 17.5407 9.56372 17.2503 9.57062 16.9799C9.57781 16.6984 9.58825 16.4159 9.61476 16.1391C9.66966 15.5655 9.78613 15.1186 9.99138 14.8263C10.1582 14.5887 10.428 14.3852 11.0221 14.3852V12.8852C9.98625 12.8852 9.23729 13.2898 8.76371 13.9644C8.3286 14.5842 8.1831 15.3535 8.12158 15.9961C8.08987 16.3274 8.07848 16.653 8.07111 16.9416C8.06346 17.2413 8.06027 17.483 8.04692 17.6921C8.04045 17.7936 8.03231 17.8732 8.02265 17.9347C8.01255 17.9989 8.00378 18.0234 8.00404 18.0228C8.00475 18.0209 8.01072 18.0055 8.02524 17.9822C8.03996 17.9587 8.0662 17.9228 8.10841 17.8852C8.20736 17.7971 8.3372 17.75 8.46067 17.75V19.25ZM5.66524 4.94028C4.5794 5.80389 4.61208 6.99882 4.76436 7.97156C4.80327 8.22007 4.85299 8.47219 4.90173 8.71506C4.9514 8.9625 5 9.20007 5.04232 9.44103C5.12692 9.92272 5.17794 10.3743 5.15071 10.8077L6.64776 10.9018C6.68589 10.2948 6.61225 9.70848 6.51971 9.18155C6.47345 8.9182 6.42036 8.65878 6.3724 8.41986C6.32353 8.17637 6.27969 7.95278 6.24631 7.73955C6.10945 6.86534 6.19319 6.43695 6.59894 6.11425L5.66524 4.94028ZM16.6519 14.3559C16.6368 14.4466 16.5771 14.5703 16.4581 14.6548C16.3712 14.7164 16.3088 14.7153 16.3566 14.709C16.3985 14.7034 16.4669 14.7005 16.593 14.7005C16.7034 14.7005 16.8642 14.7029 17.0251 14.6989C17.7145 14.6818 18.7037 14.5462 19.5682 13.6012L18.4614 12.5887C17.9911 13.1029 17.4872 13.187 16.988 13.1993C16.8517 13.2027 16.7344 13.2005 16.5931 13.2005C16.4673 13.2005 16.3101 13.2021 16.16 13.2219C16.0158 13.241 15.7948 13.2861 15.5901 13.4314C15.3532 13.5995 15.2165 13.844 15.1723 14.1093L16.6519 14.3559ZM19.5682 13.6012C19.8617 13.2803 20.0352 12.8727 20.1514 12.5217C20.2698 12.1642 20.3552 11.7782 20.4265 11.4715C20.5049 11.1337 20.5625 10.9121 20.6235 10.7741C20.7056 10.5885 20.6437 10.8707 20.3181 10.8707V9.37068C19.6585 9.37068 19.36 9.92265 19.2518 10.1672C19.1225 10.4594 19.0359 10.8284 18.9653 11.1321C18.8876 11.4669 18.8191 11.7735 18.7275 12.0502C18.6337 12.3333 18.5411 12.5016 18.4614 12.5887L19.5682 13.6012ZM5 9.37068C4.60722 9.37068 4.2515 9.52274 4.00052 9.83348C3.78599 10.0991 3.69923 10.4201 3.65307 10.6704C3.6048 10.932 3.58333 11.2261 3.56593 11.5031C3.54764 11.7941 3.53314 12.0817 3.50349 12.3878C3.38739 13.5865 3.06366 14.8054 1.63726 15.5936L2.36274 16.9064C4.43634 15.7606 4.86261 13.9148 4.99651 12.5324C5.02936 12.1932 5.04611 11.8657 5.06298 11.5971C5.08074 11.3144 5.09832 11.1043 5.12818 10.9425C5.16014 10.7692 5.19057 10.7473 5.16745 10.776C5.14862 10.7993 5.11485 10.8297 5.06805 10.851C5.02344 10.8713 4.99464 10.8707 5 10.8707V9.37068ZM20.3181 10.8707C20.2771 10.8707 20.2019 10.8602 20.1209 10.8117C20.0416 10.7643 19.9997 10.7061 19.9829 10.6767C19.9639 10.6434 19.9904 10.6742 20.0042 10.8615C20.0323 11.2443 19.9896 11.7251 19.9793 12.4495C19.9611 13.738 20.061 15.6142 21.5207 16.8269L22.4793 15.6731C21.6109 14.9517 21.4608 13.7633 21.4792 12.4707C21.4872 11.9045 21.5343 11.2156 21.5001 10.7513C21.4827 10.5151 21.4398 10.203 21.2855 9.93278C21.201 9.78488 21.0749 9.63466 20.8915 9.52481C20.7063 9.4139 20.5068 9.37068 20.3181 9.37068V10.8707ZM18.6191 11.6362L19.7595 2.08895L18.2701 1.91105L17.1297 11.4583L18.6191 11.6362ZM18.9128 1.86286L17.1371 11.4101L18.6118 11.6844L20.3875 2.13714L18.9128 1.86286ZM19.0148 2.75H19.6501V1.25H19.0148V2.75ZM5.15071 10.8077C5.12495 11.2177 5.11739 11.6143 5.12563 11.9972L6.62529 11.9649C6.61795 11.6241 6.62465 11.2696 6.64776 10.9018L5.15071 10.8077ZM5.12563 11.9972C5.17311 14.2019 5.74441 15.9447 6.37679 17.1508C6.69191 17.7518 7.02711 18.2288 7.32943 18.567C7.47927 18.7346 7.6328 18.8813 7.78333 18.993C7.85835 19.0487 7.94559 19.1054 8.04202 19.1509C8.12849 19.1917 8.27718 19.25 8.46067 19.25V17.75C8.59059 17.75 8.67292 17.79 8.682 17.7942C8.70102 17.8032 8.69983 17.8053 8.67715 17.7884C8.63227 17.7551 8.55331 17.6854 8.44772 17.5673C8.23916 17.334 7.97165 16.9623 7.70525 16.4542C7.17456 15.4421 6.66751 13.9255 6.62529 11.9649L5.12563 11.9972ZM5 10.8707C5.05307 10.8707 5.03176 10.8807 5.00375 10.8549C4.99297 10.8449 5.02137 10.8656 5.05369 10.9757C5.12487 11.2184 5.1286 11.564 5.12548 11.9754L6.62544 11.9867C6.6281 11.6349 6.63873 11.0502 6.49305 10.5536C6.41694 10.2941 6.28097 9.99273 6.02177 9.75321C5.74534 9.49776 5.39156 9.37068 5 9.37068V10.8707Z" fill="#f76ab0"/>
</svg>
