<svg width="24" height="24" viewBox="0 0 24 24" fill="none" xmlns="http://www.w3.org/2000/svg">
<path d="M5.125 7.63477C6.84375 7.63477 8.25 9.06055 8.25 10.7598C8.25 12.4785 6.84375 13.8848 5.125 13.8848H3.25V15.7598C3.25 16.0918 2.95703 16.3848 2.625 16.3848C2.27344 16.3848 2 16.0918 2 15.7598V8.25977C2 7.9082 2.27344 7.63477 2.625 7.63477H5.125ZM5.125 12.6152C6.14062 12.6152 7 11.7754 7 10.7598C7 9.72461 6.14062 8.88477 5.125 8.88477H3.25V12.6152H5.125Z" fill="#f76ab0"/>
<path d="M15.0664 14.4121C14.9492 15.1152 14.5781 15.6816 13.9727 16.0137C13.4844 16.2871 12.918 16.3848 12.332 16.3848C11.1211 16.3848 9.87109 15.9355 9.24609 15.6816C8.93359 15.5645 8.77734 15.1934 8.91406 14.8809C9.05078 14.5488 9.40234 14.3926 9.73438 14.5293C11.2383 15.1543 12.6641 15.291 13.3672 14.9199C13.6406 14.7637 13.7773 14.5293 13.8359 14.1973C13.9922 13.3574 13.4844 13.084 11.8242 12.5957C10.4375 12.2051 8.54297 11.6582 8.91406 9.60742C9.01172 8.98242 9.36328 8.43555 9.91016 8.10352C10.7891 7.51758 12.1562 7.47852 13.9336 7.94727C14.2656 8.04492 14.4609 8.37695 14.3828 8.70898C14.2852 9.04102 13.9531 9.23633 13.6211 9.1582C11.8438 8.68945 10.9844 8.88477 10.5742 9.13867C10.3398 9.31445 10.1836 9.5293 10.1445 9.80273C9.98828 10.6426 10.4961 10.916 12.1562 11.4043C13.543 11.7949 15.4375 12.3418 15.0664 14.4121Z" fill="#f76ab0"/>
<path d="M20.2031 13.0449L21.8828 15.3887C22.0781 15.6621 22 16.0527 21.7266 16.2676C21.6094 16.3457 21.4922 16.3848 21.375 16.3848C21.1797 16.3848 20.9844 16.2871 20.8477 16.1113L18.8164 13.2402H17V15.7402C17 16.0918 16.707 16.3652 16.375 16.3652C16.0234 16.3652 15.75 16.0918 15.75 15.7402V8.24023C15.75 7.9082 16.0234 7.61523 16.375 7.61523H19.1875C20.7305 7.61523 22 8.88477 22 10.4277C22 11.6191 21.2578 12.6348 20.2031 13.0449ZM17 8.88477V11.9902H19.1875C20.0469 11.9902 20.75 11.3066 20.75 10.4473C20.75 9.56836 20.0469 8.88477 19.1875 8.88477H17Z" fill="#f76ab0"/>
</svg>
