<svg width="24" height="24" viewBox="0 0 24 24" fill="none" xmlns="http://www.w3.org/2000/svg">
<path d="M17.9688 7C19.0938 7 19.9688 7.90625 19.9688 9V17C19.9688 18.125 19.0625 19 17.9688 19H5.96875C4.84375 19 3.96875 18.125 3.96875 17V7C3.96875 5.90625 4.84375 5 5.96875 5H9.65625C10.1875 5 10.6875 5.21875 11.0625 5.59375L12.5938 7H17.9688ZM18.4688 17V9C18.4688 8.75 18.2188 8.5 17.9688 8.5H11.9688L9.96875 6.65625C9.875 6.5625 9.75 6.5 9.625 6.5H5.96875C5.6875 6.5 5.46875 6.75 5.46875 7V17C5.46875 17.2812 5.6875 17.5 5.96875 17.5H17.9688C18.2188 17.5 18.4688 17.2812 18.4688 17Z" fill="#f76ab0"/>
</svg>
