<svg fill="#4F5B84" height="20px" width="20px" version="1.1" id="Layer_1" xmlns="http://www.w3.org/2000/svg" xmlns:xlink="http://www.w3.org/1999/xlink"
     viewBox="0 0 480.606 480.606" xml:space="preserve">
<path d="M480.606,458.915l-71.348-71.349c12.528-16.886,19.949-37.777,19.949-60.37c0-36.203-19.05-68.036-47.648-86.016v-26.6
	c18.229-14.417,29.962-36.716,29.962-61.721v-3.16l-35.182-79.802h-34.73V0.479H69.912v69.419H35.183L0,149.7v3.16
	c0,25.005,11.733,47.305,29.963,61.721v209.898h268.632c9.217,2.76,18.977,4.25,29.08,4.25c22.594,0,43.485-7.421,60.371-19.95
	l71.348,71.349L480.606,458.915z M32.374,167.859H124.8c-6.33,19.508-24.649,33.653-46.213,33.653
	C57.023,201.513,38.705,187.367,32.374,167.859z M332.934,201.513c-21.564,0-39.882-14.146-46.212-33.653h92.426
	C372.816,187.367,354.498,201.513,332.934,201.513z M99.912,30.479h211.696v39.419H99.912V30.479z M356.778,99.898l16.736,37.961
	H38.007l16.737-37.961H356.778z M251.974,167.859c-6.33,19.508-24.649,33.653-46.213,33.653s-39.883-14.146-46.213-33.653H251.974z
	 M59.963,229.262c5.974,1.459,12.207,2.25,18.624,2.25c26.109,0,49.288-12.812,63.587-32.482
	c14.299,19.67,37.478,32.482,63.587,32.482s49.288-12.812,63.587-32.482c9.58,13.179,23.15,23.271,38.913,28.502
	c-46.73,9.086-82.119,50.316-82.119,99.663c0,25.787,9.669,49.355,25.565,67.283H59.963V229.262z M327.675,398.729
	c-39.443,0-71.533-32.09-71.533-71.533s32.09-71.533,71.533-71.533s71.532,32.089,71.532,71.533S367.118,398.729,327.675,398.729z"
/>
</svg>
