<svg width="20" height="21" viewBox="0 0 20 21" fill="none" xmlns="http://www.w3.org/2000/svg">
<!--    <path fill-rule="evenodd" clip-rule="evenodd" d="M0 10.5C0 16.0228 4.47715 20.5 10 20.5C15.5228 20.5 20 16.0228 20 10.5C20 4.97715 15.5228 0.5 10 0.5C4.47715 0.5 0 4.97715 0 10.5ZM2 10.5C2 6.08172 5.58172 2.5 10 2.5C14.4183 2.5 18 6.08172 18 10.5C18 14.9183 14.4183 18.5 10 18.5C5.58172 18.5 2 14.9183 2 10.5ZM10.5476 11.566C10.4916 11.93 10.1976 12.252 9.79159 12.252H9.67959C9.27359 12.252 8.97959 11.944 8.92359 11.566L8.78359 10.614C8.71359 10.152 8.97959 9.83 9.42759 9.774C10.6456 9.62 11.2056 9.242 11.2056 8.556V8.528C11.2056 7.898 10.7296 7.534 9.91759 7.534C9.31559 7.534 8.79759 7.716 8.29359 8.094C8.12559 8.22 7.90159 8.318 7.66359 8.318C7.13159 8.318 6.68359 7.87 6.68359 7.338C6.68359 7.072 6.79559 6.792 7.04759 6.582C7.78959 5.966 8.72759 5.574 9.95959 5.574C11.9756 5.574 13.3476 6.61 13.3476 8.472V8.5C13.3476 10.278 12.1156 11.006 10.5896 11.314L10.5476 11.566ZM8.46159 14.394V14.366C8.46159 13.694 8.97959 13.176 9.67959 13.176C10.3796 13.176 10.8976 13.694 10.8976 14.366V14.394C10.8976 15.066 10.3796 15.584 9.67959 15.584C8.97959 15.584 8.46159 15.066 8.46159 14.394Z" fill="url(#paint0_linear_345_632)"/>-->
    <path fill-rule="evenodd" clip-rule="evenodd" d="M7.00003 0C6.55355 0 6.16116 0.295977 6.03851 0.725279L5.2781 3.38671L2.64145 3.01005C2.19383 2.94611 1.759 3.19048 1.58088 3.60608L0.0808842 7.10608C-0.0801912 7.48192 0.00378326 7.91797 0.292922 8.20711L2.08582 10L0.292922 11.7929C-0.0259481 12.1118 -0.0919483 12.6046 0.131786 12.9961L2.13179 16.4961C2.33947 16.8596 2.75153 17.0552 3.16443 16.9864L5.28378 16.6332L6.03851 19.2747C6.16116 19.704 6.55355 20 7.00003 20H12C12.4465 20 12.8389 19.704 12.9616 19.2747L13.7163 16.6332L15.8356 16.9864C16.2485 17.0552 16.6606 16.8596 16.8683 16.4961L18.8683 12.9961C19.092 12.6046 19.026 12.1118 18.7071 11.7929L16.9142 10L18.7071 8.20711C18.9963 7.91797 19.0802 7.48192 18.9192 7.10608L17.4192 3.60608C17.2411 3.19048 16.8062 2.94611 16.3586 3.01005L13.722 3.38671L12.9616 0.725279C12.8389 0.295977 12.4465 0 12 0H7.00003ZM6.96155 4.77472L7.75433 2H11.2457L12.0385 4.77472C12.1758 5.25523 12.6467 5.56062 13.1415 5.48995L15.8828 5.09833L16.8142 7.27163L14.7929 9.29289C14.4024 9.68342 14.4024 10.3166 14.7929 10.7071L16.7528 12.667L15.4774 14.8991L13.1644 14.5136C12.6628 14.43 12.1782 14.7363 12.0385 15.2253L11.2457 18H7.75433L6.96155 15.2253C6.82183 14.7363 6.33731 14.43 5.83563 14.5136L3.52269 14.8991L2.24722 12.667L4.20714 10.7071C4.59766 10.3166 4.59766 9.68342 4.20714 9.29289L2.18587 7.27163L3.11728 5.09833L5.85861 5.48995C6.35332 5.56062 6.82426 5.25523 6.96155 4.77472ZM9.50003 12C8.39546 12 7.50003 11.1046 7.50003 10C7.50003 8.89543 8.39546 8 9.50003 8C10.6046 8 11.5 8.89543 11.5 10C11.5 11.1046 10.6046 12 9.50003 12ZM5.50003 10C5.50003 7.79086 7.29089 6 9.50003 6C11.7092 6 13.5 7.79086 13.5 10C13.5 12.2091 11.7092 14 9.50003 14C7.29089 14 5.50003 12.2091 5.50003 10Z" fill="url(#paint0_linear_345_632)" />
    <defs>
        <linearGradient id="paint0_linear_345_632" x1="0" y1="20.5" x2="19.5122" y2="4.89022" gradientUnits="userSpaceOnUse">
            <stop stop-color="#CA4573"/>
            <stop offset="0.494792" stop-color="#EE5342"/>
            <stop offset="1" stop-color="#EFBB58"/>
        </linearGradient>
    </defs>
</svg>
